<svg xmlns="http://www.w3.org/2000/svg" viewBox="0 0 23.91 23.91"><defs><style>.cls-1{fill:#367da9;}.cls-2{fill:#fff;}.cls-3{fill:#f58237;}</style></defs><g><rect class="cls-1" width="23.91" height="23.91" rx="7.51"/><rect class="cls-2" x="2.7" y="2.79" width="18.42" height="18.42" rx="5.64"/></g><g><path class="cls-3" d="M12.05,6a1,1,0,0,0-.94,1.11,1,1,0,0,0,.94,1.11h7.47a1,1,0,0,0,.93-1.11A1,1,0,0,0,19.52,6Z" transform="translate(-0.09)"/><path class="cls-3" d="M7.37,12a1,1,0,0,1,.94-1.11h7.47A1,1,0,0,1,16.72,12a1,1,0,0,1-.94,1.11H8.31A1,1,0,0,1,7.37,12Z" transform="translate(-0.09)"/><path class="cls-3" d="M3.64,16.9a1,1,0,0,1,.93-1.11h7.48a1.13,1.13,0,0,1,0,2.22H4.57A1,1,0,0,1,3.64,16.9Z" transform="translate(-0.09)"/></g></svg>